<svg width="21" height="20" viewBox="0 0 21 20" fill="none" xmlns="http://www.w3.org/2000/svg">
<path d="M18.0808 3.34656C15.3902 3.34656 13.521 2.48605 12.4266 1.76414C11.2378 0.979959 10.6771 0.183672 10.6722 0.176601C10.5962 0.0660546 10.4706 0.000351562 10.3365 0C10.3362 0 10.3358 0 10.3355 0C10.2018 0 10.0762 0.0659374 9.99995 0.175742C9.99444 0.183711 9.43374 0.979998 8.24499 1.76418C7.15062 2.48609 5.28132 3.3466 2.59078 3.3466C2.36535 3.3466 2.18262 3.52933 2.18262 3.75476V9.92916C2.18262 9.93225 2.18266 9.93541 2.1827 9.9385C2.22395 11.7378 2.34234 13.3587 3.37765 14.9745C4.52929 16.7719 6.68597 18.3568 10.1648 19.9624C10.219 19.9875 10.2774 19.9999 10.3358 19.9999C10.3941 19.9999 10.4526 19.9874 10.5068 19.9624C13.9856 18.3568 16.1422 16.7719 17.2939 14.9745C18.3292 13.3587 18.4476 11.7378 18.4889 9.9385C18.4889 9.93541 18.489 9.93225 18.489 9.92916V3.75472C18.489 3.52929 18.3063 3.34656 18.0808 3.34656ZM17.6727 9.92451C17.6328 11.6561 17.5284 13.0954 16.6066 14.5341C15.561 16.1659 13.5662 17.6324 10.3358 19.1418C7.1055 17.6325 5.11058 16.1659 4.06504 14.5341C3.14316 13.0954 3.03879 11.6561 2.99898 9.92451V4.15667C5.69659 4.07355 7.59585 3.17796 8.73178 2.42093C9.49975 1.90914 10.0268 1.39578 10.3358 1.05219C10.6448 1.39578 11.1719 1.90914 11.9398 2.42093C13.0758 3.178 14.975 4.07359 17.6727 4.15667V9.92451Z" fill="black"/>
<path d="M8.48285 3.87107C8.37875 3.67111 8.1323 3.59338 7.93234 3.6974C6.82824 4.27193 5.58555 4.65712 4.23887 4.8422C4.01555 4.8729 3.85938 5.0788 3.89008 5.30216C3.91817 5.50661 4.09321 5.65478 4.29395 5.65478C4.31247 5.65478 4.33121 5.65353 4.35004 5.65095C5.78969 5.45306 7.12172 5.03947 8.30918 4.42158C8.50914 4.31752 8.58687 4.07103 8.48285 3.87107Z" fill="black"/>
<path d="M9.73653 3.01838C9.60278 2.83686 9.34727 2.79818 9.16583 2.9319C9.11836 2.9669 9.06942 3.00217 9.01903 3.03768C8.83485 3.16768 8.79094 3.42232 8.9209 3.60654C9.00044 3.71916 9.12657 3.77935 9.25473 3.77935C9.3361 3.77935 9.41821 3.7551 9.48973 3.70463C9.54477 3.66576 9.59817 3.62725 9.65 3.58908C9.83153 3.45537 9.87024 3.19986 9.73653 3.01838Z" fill="black"/>
<path d="M10.336 4.8385C7.41017 4.8385 5.02979 7.21889 5.02979 10.1448C5.02979 13.0706 7.41017 15.451 10.336 15.451C13.2619 15.451 15.6423 13.0706 15.6423 10.1448C15.6423 7.21889 13.2619 4.8385 10.336 4.8385ZM10.336 14.6346C8.90849 14.6346 7.63447 13.9649 6.8115 12.9232C7.58806 12.2061 8.60052 11.7458 9.6981 11.6171C9.88712 11.5949 10.0357 11.4451 10.0563 11.2559C10.077 11.0667 9.96407 10.8884 9.78431 10.826C9.10728 10.5913 8.65236 9.95201 8.65236 9.23529C8.65236 8.30693 9.40763 7.55166 10.336 7.55166C11.2644 7.55166 12.0197 8.30693 12.0197 9.23529C12.0197 9.95201 11.5648 10.5912 10.8877 10.826C10.7079 10.8884 10.595 11.0667 10.6157 11.2559C10.6363 11.4451 10.7849 11.5949 10.9739 11.6171C12.0715 11.7458 13.084 12.2061 13.8605 12.9232C13.0375 13.9649 11.7636 14.6346 10.336 14.6346ZM12.0915 11.0151C12.5573 10.5551 12.836 9.91892 12.836 9.23533C12.836 7.85685 11.7145 6.73537 10.336 6.73537C8.95751 6.73537 7.83603 7.85685 7.83603 9.23533C7.83603 9.91888 8.11478 10.555 8.58056 11.0151C7.75388 11.2587 6.99541 11.6736 6.36123 12.2309C6.03256 11.6072 5.84615 10.8974 5.84615 10.1448C5.84615 7.66904 7.86033 5.65491 10.336 5.65491C12.8117 5.65491 14.8259 7.66904 14.8259 10.1448C14.8259 10.8974 14.6395 11.6072 14.3108 12.2309C13.6766 11.6736 12.9182 11.2587 12.0915 11.0151Z" fill="black"/>
</svg>
